<?xml version="1.0" standalone="no"?>
<!DOCTYPE svg PUBLIC "-//W3C//DTD SVG 20010904//EN"
 "http://www.w3.org/TR/2001/REC-SVG-20010904/DTD/svg10.dtd">
<svg version="1.0" xmlns="http://www.w3.org/2000/svg"
 width="400.000000pt" height="400.000000pt" viewBox="0 0 400.000000 400.000000"
 preserveAspectRatio="xMidYMid meet">
<metadata>
Created by potrace 1.14, written by Peter Selinger 2001-2017
</metadata>
<g transform="translate(0.000000,400.000000) scale(0.100000,-0.100000)"
fill="#000000" stroke="none">
<path d="M501 3985 c-177 -39 -346 -171 -429 -335 -76 -151 -72 -58 -72 -1650
0 -1591 -4 -1497 71 -1650 82 -165 252 -297 434 -335 105 -22 2885 -22 2990 0
182 38 352 170 434 335 75 153 71 59 71 1650 0 1591 4 1497 -72 1650 -80 163
-254 298 -433 335 -102 21 -2896 21 -2994 0z m1313 -1024 c82 -44 136 -157
121 -253 -7 -49 -701 -1508 -748 -1575 -55 -79 -148 -124 -252 -125 -116 -1
-209 72 -235 183 -24 100 -26 97 325 834 81 171 201 422 266 559 125 262 162
319 236 363 97 57 198 62 287 14z m639 7 c61 -31 102 -64 129 -106 14 -20 118
-233 232 -472 115 -239 274 -572 354 -740 140 -292 147 -308 150 -377 5 -87
-9 -133 -57 -186 -99 -110 -277 -106 -396 10 -42 41 -22 1 -468 933 -162 338
-300 632 -307 654 -26 81 8 187 82 250 79 68 190 81 281 34z m-298 -844 l145
-295 -84 -182 c-176 -383 -210 -453 -237 -493 -164 -241 -499 -177 -499 95 0
56 6 80 43 161 78 171 480 1010 484 1010 2 0 69 -133 148 -296z"/>
</g>
</svg>
